# xmcd CD database file
#
# Track frame offsets:
#	183
#	25415
#	43283
#	63915
#	90360
#	120945
#	138988
#	162663
#	181015
#	201123
#
# Disc length: 2910 seconds
#
# Revision: 0
# Processed by: cddbd v1.5.2PL0 Copyright (c) Steve Scherf et al.
# Submitted via: CDex 1.70beta2
#
DISCID=800b5c0a
DTITLE=Garage Music - The new House Sound Of London - Garage Music - The new House Sound Of London
DYEAR=1989
DGENRE=New Age
TTITLE0=French Audacity - Hit The Bit
TTITLE1=Tube Generation - Magic Fly
TTITLE2=French Audacity - The Fine One
TTITLE3=The Hacker Crew - X-Press To Moskow
TTITLE4=Natural Flavour - Taste The Beat
TTITLE5=The Hacker Crew - Jelly's House
TTITLE6=Alberto and The Acid Angels - Do It (Garage Mix)
TTITLE7=Hard, Disk and Drive - Iron Man (Is What I Am)
TTITLE8=Tube Generation - The Riot
TTITLE9=Alberto and The Acid Angels - Do It (Acid Mix)
EXTD=YEAR: 1989
EXTT0=
EXTT1=
EXTT2=
EXTT3=
EXTT4=
EXTT5=
EXTT6=
EXTT7=
EXTT8=
EXTT9=
PLAYORDER=
